<?xml version="1.0" encoding="utf-8"?>
<!-- Generator: Adobe Illustrator 26.4.1, SVG Export Plug-In . SVG Version: 6.00 Build 0)  -->
<svg version="1.1" id="Слой_1" xmlns="http://www.w3.org/2000/svg" xmlns:xlink="http://www.w3.org/1999/xlink" x="0px" y="0px"
	 viewBox="0 0 839.49 935.49" style="enable-background:new 0 0 839.49 935.49;" xml:space="preserve">
<style type="text/css">
	.st0{fill:#FDFBE9;}
	.st1{fill:#366150;}
	.st2{fill:#FDE2A9;}
	.st3{fill:#ED6F36;}
	.st4{fill:#ACBD6E;}
	.st5{fill:#48765B;}
	.st6{fill-rule:evenodd;clip-rule:evenodd;fill:#366150;}
</style>
<path class="st1" d="M564.21,117.99c4.57,0.08,8.21,3.32,12.69,3.74c-13.77,23.96-27.54,47.92-41.29,71.88
	c-0.74,1.29-1.36,2.64-2.04,3.96c-4.7-0.03-9.7,0.75-14.19-0.93C534.22,170.69,549.37,143.93,564.21,117.99z"/>
<path class="st1" d="M243.47,122.66c3.39-2.8,8.14-2.95,11.47-5.88c12.44,22.09,24.89,44.18,37.32,66.27
	c2.51,4.47,4.94,8.98,7.41,13.48c-4.59,0.03-8.59,3.29-13.22,1.49C272.31,173.31,257.61,147.38,243.47,122.66z"/>
<path class="st2" d="M341.65,498.77c-15.29-0.14-30.6,0.14-45.87-0.53c-14.29-0.62-28.57-0.27-42.84-0.7
	c-20.74-0.63-41.27-19.88-43.24-40.62c-1.35-14.22-1.92-28.48-2.1-42.76c-0.02-1.95,0.42-4.07-1.7-5.37
	c1.46-0.58,1.09-1.8,1.07-2.95c-0.32-22.09-0.7-44.17-0.91-66.26c-0.17-17.87-0.22-35.74,1.44-53.56
	c0.42-15.27,0.57-30.54,2.06-45.78c1.87-19.19,19.62-37,39.91-39.42c10.54-1.26,21.13-2,31.7-3.02c1.6-0.15,3.87,0.09,4.87-0.25
	c1.43,0,9.03-0.99,13.63-1.02c17.25-0.63,34.51-1.14,51.75-1.93c37.06-1.69,74.14-1.17,111.2-0.57c16.9,0.27,33.86,0.72,50.73,2.46
	c2.12,0.22,5.92-0.06,6.33-0.13c0.05,0.02,9.19,1.17,13.89,1.2c13.03,1.31,26.21,1.63,39.06,4.24c19.72,4,35.11,19.72,36.86,40.46
	c1.18,14.06,1.59,28.18,2.35,42.27c0.42,9.71,0.85,19.42,1.27,29.13c-0.17,0.32-0.17,0.63,0.01,0.94c0,1.38,0.01,2.75,0.01,4.13
	c-0.14,5.64-0.45,11.29,0.47,16.91c-0.02,3.14-0.03,6.29-0.06,9.43c-0.25,21.17-0.26,42.35-1.7,63.49
	c-0.21,15.63-0.88,31.24-2.11,46.84c-1.17,14.89-8.88,25.79-20.6,34.27c-7.94,5.74-16.72,8.09-26.63,8.1
	c-28.29,0.01-56.58,0.62-84.88,1C432.3,498.77,386.98,498.77,341.65,498.77z M404.29,467.51c50.51,0.02,93.97-0.22,137.32-4.18
	c18.61-1.7,32.96-14.51,35.18-31.82c0.56-4.38,0.08-8.82,0.43-13.28c1.43-18.24,2.34-36.54,2.85-54.83
	c0.85-30.59-2.26-61.08-2.86-91.64c-0.39-19.96-14.53-35.05-34.33-36.75c-33.17-2.86-66.43-4.41-99.71-4.88
	c-25.64-0.37-51.29-0.31-76.94,0.39c-29.79,0.81-59.54,2.11-89.25,4.42c-18.14,1.41-33.86,15.66-34.69,32.2
	c-1.23,24.77-2.23,49.56-3.06,74.35c-0.94,28.33,2.02,56.57,2.59,84.85c0.42,20.6,15.24,34.68,34.28,36.94
	c15,1.78,30.19,2.12,45.3,2.82C351.36,467.48,381.35,467.63,404.29,467.51z"/>
<path class="st2" d="M274.53,546.36c2.28-18.23,17.62-30.69,36.67-29.91c10.1,0.42,20.24-0.08,30.37-0.16
	c15.61,0.06,31.23,0.17,46.84,0.16c29.73-0.02,59.46-0.11,89.19-0.17c13.28,0.28,26.64-1.02,39.82,1.06
	c14.11,2.23,23.58,12.05,26.46,26.22c0.2,0.96,0.59,1.89,0.89,2.83c-1.84,4.17-0.2,8.42-0.18,12.61c0.09,17.6-0.01,35.21,1.19,52.78
	c0.57,19.26,1.15,38.53,1.72,57.79c-1.45-2.6-3.95-1.96-6.21-1.96c-49.44-0.01-98.89-0.01-148.33,0.01
	c-40.29,0.02-80.57,0.07-120.86,0.11c-0.97-10.95,0.84-21.85,0.57-32.79c-0.19-7.45-0.1-14.93,0.87-22.36
	c0.44-17.52,0.97-35.03,1.24-52.55C274.85,555.47,275.75,550.88,274.53,546.36z M332.62,548.51c-7.3,1.79-11.85,7.16-11.93,14.52
	c-0.12,11.15-0.12,22.31-0.05,33.46c0.06,9.53,5.7,15.32,15.18,15.33c48.78,0.06,97.55,0.05,146.33-0.01
	c9.1-0.01,15.35-6.23,15.47-15.35c0.15-10.98,0.16-21.97,0.02-32.96c-0.1-8.03-4.12-12.88-11.95-15.04
	c-0.28-0.07-0.55-0.14-0.83-0.21c-0.81-0.02-1.62-0.05-2.44-0.07c-1.47-0.15-2.95-0.44-4.42-0.44c-46.85-0.01-93.71,0-140.56,0.02
	C335.81,547.76,334.1,547.45,332.62,548.51z"/>
<path class="st3" d="M272.1,667.72c40.29-0.04,80.57-0.09,120.86-0.11c49.44-0.02,98.89-0.02,148.33-0.01
	c2.25,0,4.76-0.65,6.21,1.96c0.33,10.3,0.76,20.59,0.98,30.89c0.35,16.03-5.57,24.21-20.84,29.15c-0.45,0.14-0.83,0.5-1.23,0.76
	c-0.95-0.13-1.91-0.27-2.87-0.4c-5.8-0.09-11.6-0.38-17.39-0.23c-5.07,0.13-10.22-0.9-15.21,0.79c-64.41,0-128.82-0.01-193.23-0.01
	c-1.19-1.62-2.55-0.44-3.85-0.23c-5.53-1.68-11.16-3.07-15.45-7.43c-5.59-5.67-7.97-12.46-7.65-20.33
	C271.23,690.94,271.66,679.33,272.1,667.72z M409.8,686.44c0-0.01,0-0.02,0-0.03c-10.99,0-21.97-0.03-32.96,0.01
	c-5.84,0.02-9.97,3.58-10.1,8.6c-0.14,5.25,4.05,9.41,10.09,9.44c21.97,0.1,43.94,0.1,65.91,0c5.89-0.03,10.12-4.41,9.88-9.66
	c-0.22-4.74-4.32-8.31-9.87-8.34C431.77,686.39,420.78,686.44,409.8,686.44z"/>
<path class="st1" d="M282.84,807.8c-17.15,12.07-34.94,23.12-54.22,31.4c-14.84,6.37-28.08,1.87-39.45-8.57
	c-15.06-13.82-24.41-31.38-31.5-50.22c-4.87-12.93-9.01-26.11-8.98-40.14c0.06-25.37,17.51-45.16,42.73-47.28
	c17.82-1.49,32.37,5.95,43.62,19.73c8.36,10.24,12.92,22.34,16.68,34.81c-0.02,6.01,3.77,9.92,7.66,13.74
	c10.46,10.28,16.84,22.79,20.06,36.98C280.19,801.58,280.03,805.21,282.84,807.8z"/>
<path class="st1" d="M566.67,747.56c3.22,0.56,2.84-2.29,3.39-3.89c3.67-10.74,7.72-21.31,14.84-30.32
	c11.26-14.24,25.79-22.19,44.22-20.31c18.87,1.93,31.9,12.45,38.92,30.02c4.7,11.78,3.29,23.88,0.7,35.88
	c-5.42,25.16-15.81,47.94-32.99,67.31c-8.22,9.27-18.05,15.65-31.09,15.61c-5.12-0.02-9.91-1.16-14.46-3.31
	c-19.14-9.04-37.24-19.87-54.53-32.06c2.36-0.33,3.67-0.82,4.36-3.98c3.6-16.46,10.5-31.36,23.18-42.96
	C566.97,756.14,568.3,752.37,566.67,747.56z"/>
<path class="st1" d="M196.67,644.42c-2.44,0.32-2.01,2.28-2.09,3.83c-0.36,6.99-4.27,11.25-10.4,13.92
	c-5.2,2.26-10.6,4.07-16.12,5.12c-6.56,1.25-12.16,4.12-17.6,7.77c-6.35,4.26-12.78,8.43-19.43,12.2
	c-5.48,3.1-11.76,1.91-16.12-2.32c-4.21-4.09-5.3-9.77-2.95-15.12c1.28-2.9,3.63-4.7,6.21-6.29c5.24-3.22,10.57-6.31,15.72-9.68
	c1.36-0.89,4.47-0.97,3.12-4.03c-1.31-2.98-3.36-1.06-5.02-0.5c-7.71,2.59-15.38,5.28-23.07,7.95c-2.53,0.88-5.09,1.53-7.8,1.55
	c-6.72,0.06-12.24-4.18-13.41-10.36c-1.27-6.72,2.1-12.6,8.8-14.84c8.34-2.8,16.75-5.38,25.13-8.07c1.66-0.53,4.19-0.48,3.83-2.99
	c-0.39-2.69-2.95-1.47-4.52-1.51c-7.49-0.15-14.98-0.05-22.47-0.13c-8.42-0.09-13.91-5.39-13.72-13.12
	c0.18-7.43,6.24-13.12,14.3-12.76c13.13,0.59,26.3-0.19,40.98,1.56c-4.97-5.17-9.07-9.37-13.1-13.63
	c-5.75-6.06-6.54-13.03-2.19-18.94c5.77-7.85,16.42-8.07,23.24-0.35c10.25,11.6,20.17,23.48,29.77,35.62
	c1.53,1.94,2.71,4.2,4.92,5.54c0.29,1.1,0.28,2.42,0.92,3.26c5.49,7.28,7.35,15.86,9.41,24.47
	C193.97,636.55,192.96,641.26,196.67,644.42z"/>
<path class="st1" d="M638.59,604.5c10.54-14.36,21.89-28.09,33.68-41.43c5.43-6.13,14.48-6.49,20.18-1.38
	c6.18,5.54,6.55,13.9,0.82,20.43c-4.03,4.6-8.89,8.46-12.28,13.12c8.96,0,17.97,0.04,26.98-0.02c4.49-0.03,8.98-0.4,13.47-0.35
	c7.93,0.08,13.7,5.95,13.57,13.57c-0.13,7.4-5.82,12.54-13.86,12.54c-7.66,0-15.32,0.05-22.98-0.02c-2.37-0.02-4.36,0.21-4.9,3.12
	c9.79,3.13,19.62,6.1,29.32,9.43c7.96,2.73,11.46,11.06,7.91,18.02c-3.14,6.15-9.75,8.83-17.07,6.52
	c-9.35-2.95-18.59-6.22-27.91-9.28c-1.2-0.39-2.71-1.98-3.75,0.36c-0.93,2.1,0.36,2.93,1.92,3.87c5.99,3.6,11.98,7.2,17.85,11
	c6.83,4.42,8.63,11.53,4.82,18.09c-3.8,6.54-11.73,8.66-18.67,4.85c-2.62-1.44-5.11-3.12-7.56-4.84
	c-11.77-8.26-24.05-15.07-38.59-17.57c-9.47-1.63-16.91-6.44-16.78-17.75c0.02-1.42-0.8-2.08-2.08-2.35
	c1.91-1.5,2.84-3.36,2.99-5.89C626.42,625.86,631.59,614.82,638.59,604.5z"/>
<path class="st1" d="M297.71,730.52c64.41,0,128.82,0.01,193.23,0.01c10.86-0.25,21.75,0.77,32.6-0.57c0.96,0.13,1.92,0.27,2.87,0.4
	c0,0,0.27,0.2,0.27,0.2c-1.3,1.52-3.08,0.96-4.67,0.97c-7.8,0.05-15.61,0.31-23.39-0.09c-5.05-0.26-8.72,1.58-11.6,5.36
	c-2.09,2.75-4.15,5.51-5.85,8.59c-3.04,5.52-4.8,11.55-7.52,17.18c-4.4-4.18-9.53-4.59-15.47-4.38
	c-34.53,1.19-69.08,1.3-103.62-0.15c-4.16-0.17-5.67,3.72-8.92,4.77c-0.73-6.37-3.91-11.8-6.46-17.52
	c-4.69-10.52-12.19-15.47-23.93-13.84c-4.23,0.59-8.61,0.14-12.91,0.07C300.76,731.5,298.98,732.11,297.71,730.52z"/>
<path class="st1" d="M207.51,286.03c-1.66,17.82-1.62,35.69-1.44,53.56c0.21,22.09,0.59,44.17,0.91,66.26
	c0.02,1.15,0.39,2.37-1.07,2.95c-15.8-2.92-26-14.07-26.24-29.88c-0.33-21.48-0.36-42.98,0.11-64.45
	c0.33-15.23,10.18-26.3,24.46-29.39C205.83,284.73,206.69,284.74,207.51,286.03z"/>
<path class="st1" d="M613.13,318.74c0-1.38-0.01-2.75-0.01-4.13c0.07-0.1,0.21-0.21,0.19-0.3c-0.03-0.22-0.13-0.43-0.2-0.65
	c-0.42-9.71-0.85-19.42-1.27-29.13c7.47,1.14,14.24,3.65,19.61,9.31c4.89,5.17,7.99,11.25,8.2,18.27
	c0.69,23.14,0.93,46.31-0.09,69.44c-0.65,14.83-13.55,26.78-27.71,27.02c1.44-21.14,1.45-42.32,1.7-63.49
	c0.04-3.14,0.04-6.29,0.06-9.43C613.49,330.01,614.25,324.35,613.13,318.74z"/>
<path class="st4" d="M243.47,122.66c-4.35-1.61-9.09-0.37-13.55-2.48c-10.58-5.01-16.74-15.25-15.21-26.57
	c1.38-10.24,10.48-19.45,20.67-20.94c11.81-1.72,22.52,4.39,27.29,15.58c4.24,9.94,1.15,21.35-7.73,28.54
	C251.61,119.71,246.86,119.86,243.47,122.66z"/>
<path class="st4" d="M564.21,117.99c-0.12-1.45-1.16-2.33-2.03-3.32c-8.99-10.22-9.71-22.45-1.97-32.77
	c6.63-8.84,19.25-12.02,29.1-7.35c10.83,5.14,16.65,16.91,13.89,28.06c-2.98,12-13.3,19.51-26.3,19.11
	C572.43,121.31,568.78,118.07,564.21,117.99z"/>
<path class="st4" d="M282.84,807.8c-2.81-2.59-2.65-6.22-3.41-9.55c-3.23-14.19-9.6-26.69-20.06-36.98
	c-3.89-3.82-7.68-7.73-7.66-13.74c4.8-0.82,8.51-4.38,13.28-5.27c12.2,6.49,23.99,13.49,30.99,26.1c4.25,7.65,9.83,14.86,8.87,24.42
	c0,0,0.05-0.05,0.05-0.05c-0.47,0.02-0.95,0.05-1.42,0.07c0.1,0.27,0.2,0.53,0.3,0.8C297.05,798.68,290.25,803.68,282.84,807.8z"/>
<path class="st4" d="M566.67,747.56c1.63,4.8,0.3,8.58-3.45,12.01c-12.68,11.6-19.58,26.5-23.18,42.96c-0.69,3.15-2,3.64-4.36,3.98
	c-6.67-3.87-13.03-8.18-19.12-12.91c0.1-0.27,0.2-0.54,0.3-0.81c-0.48-0.01-0.96-0.01-1.44-0.02c0,0,0.03,0.04,0.04,0.04
	c1.69-10.25,5.52-19.67,11.59-28.06c7.52-10.4,17.21-18.08,29.57-22.09C560.06,744.1,563.57,745.41,566.67,747.56z"/>
<path class="st1" d="M556.62,742.66c-12.36,4.01-22.05,11.69-29.57,22.09c-6.07,8.39-9.9,17.81-11.59,28.06
	c-7.3-4.53-14.36-9.4-20.94-14.94c1.49-8.58,5.53-16.01,10.06-23.34c6.43-10.4,14.38-18.45,27.21-19.99c1.76-0.21,1-1.27,0.9-2.15
	C541.13,734.73,548.88,738.68,556.62,742.66z"/>
<path class="st1" d="M304.86,792.77c0.96-9.56-4.63-16.77-8.87-24.42c-7-12.61-18.8-19.61-30.99-26.1
	c6.16-3.65,12.61-6.68,19.44-8.85c3.89,1.93,8.38,1.09,12.38,3.09c12.39,6.19,19.74,16.55,24.96,28.85
	c1.64,3.85,2.28,8.23,5.85,11.06C320.31,782.24,312.8,787.8,304.86,792.77z"/>
<path class="st1" d="M198.8,594.73c8.04-5.77,16.24-11.29,24.85-16.18c0.9,1.28,0.55,2.87,1.65,4.32
	c7.86,10.35,13.58,21.89,17.33,34.3c1.36,4.49,2.05,8.67,8.22,5.64c0.15-0.07,0.52,0.33,0.8,0.52
	c-10.96,5.73-22.15,10.92-33.88,14.9c2.28-2.51,1.89-5.14,1.06-8.24c-1.52-5.63-3.73-10.95-6.21-16.15
	C209.17,606.66,205.52,599.57,198.8,594.73z"/>
<path class="st1" d="M597.76,579.5c7.94,5.1,15.87,10.2,23.81,15.3c-11.83,11.9-18.71,26.22-20.98,42.81
	c-9.72-3.09-18.91-7.37-27.88-12.15c2.38-1.3,3.08-3.65,3.88-6.01C581.47,604.98,588.62,591.71,597.76,579.5z"/>
<path class="st4" d="M597.76,579.5c-9.14,12.21-16.29,25.48-21.18,39.94c-0.8,2.36-1.49,4.71-3.88,6.01
	c-7.03-3.05-13.81-6.55-20.24-10.72c0.24-0.22,0.63-0.41,0.7-0.68c4.42-16.23,12.14-31.13,18.62-46.54
	c0.58-1.39,1.99-1.69,2.81-2.71C582.55,569.33,590.24,574.28,597.76,579.5z"/>
<path class="st4" d="M251.63,623.33c-0.27-0.18-0.65-0.59-0.8-0.52c-6.16,3.03-6.86-1.15-8.22-5.64
	c-3.76-12.41-9.47-23.95-17.33-34.3c-1.1-1.45-0.75-3.03-1.65-4.32c7.05-5.13,14.42-9.76,21.97-14.12
	c7.39,13.79,14.14,27.88,19.8,42.49c1.01,2.6,2.73,4.95,2.25,7.95C262.58,618.18,257.19,620.91,251.63,623.33z"/>
<path class="st4" d="M327.62,776.4c-3.57-2.83-4.22-7.21-5.85-11.06c-5.22-12.29-12.57-22.66-24.96-28.85c-4-2-8.49-1.16-12.38-3.09
	c2.95-1.6,6.08-2.67,9.42-3.11c1.3-0.22,2.66-1.39,3.85,0.23c1.27,1.58,3.05,0.98,4.63,1.01c4.31,0.07,8.69,0.51,12.91-0.07
	c11.74-1.63,19.24,3.31,23.93,13.84c2.55,5.72,5.73,11.15,6.46,17.52C339.64,767.34,333.63,771.87,327.62,776.4z"/>
<path class="st4" d="M532.68,732.4c0.1,0.88,0.86,1.94-0.9,2.15c-12.83,1.53-20.77,9.59-27.21,19.99
	c-4.53,7.32-8.57,14.75-10.06,23.34c-7.27-4.66-14.09-9.93-20.85-15.3c2.72-5.63,4.48-11.66,7.52-17.18
	c1.69-3.08,3.76-5.84,5.85-8.59c2.88-3.78,6.54-5.62,11.6-5.36c7.78,0.4,15.59,0.14,23.39,0.09c1.59-0.01,3.36,0.55,4.67-0.97
	C528.39,732.14,531.06,730.55,532.68,732.4z"/>
<path class="st1" d="M574.6,564.81c-0.82,1.01-2.23,1.32-2.81,2.71c-6.48,15.4-14.2,30.31-18.62,46.54
	c-0.07,0.27-0.46,0.45-0.7,0.68c-2.23-0.98-4.45-1.97-6.68-2.95c-1.2-17.58-1.11-35.19-1.19-52.78c-0.02-4.19-1.66-8.44,0.18-12.61
	C554.71,552.52,564.65,558.66,574.6,564.81z"/>
<path class="st1" d="M267.66,614.87c0.49-3-1.24-5.35-2.25-7.95c-5.66-14.6-12.41-28.69-19.8-42.49
	c9.25-6.64,19.26-12.07,28.92-18.07c1.22,4.53,0.32,9.12,0.25,13.66c-0.27,17.52-0.8,35.04-1.24,52.55
	C271.58,613.33,269.62,614.1,267.66,614.87z"/>
<path class="st4" d="M198.8,594.73c6.72,4.83,10.37,11.92,13.8,19.1c2.49,5.21,4.7,10.52,6.21,16.15c0.84,3.1,1.22,5.73-1.06,8.24
	c-6.82,2.78-13.87,4.77-21.08,6.19c-3.72-3.16-2.7-7.87-3.66-11.85c-2.06-8.61-3.92-17.19-9.41-24.47
	c-0.63-0.84-0.63-2.16-0.92-3.26C188.06,601.47,193.43,598.1,198.8,594.73z"/>
<path class="st4" d="M600.59,637.61c2.26-16.59,9.15-30.91,20.98-42.81c4.19,2.66,8.36,5.34,12.57,7.96
	c1.36,0.85,2.56,2.22,4.45,1.74c-7,10.32-12.17,21.36-12.91,34.03c-0.15,2.54-1.08,4.39-2.99,5.89
	C615.06,643.01,607.72,640.65,600.59,637.61z"/>
<path class="st1" d="M303.79,793.58c-0.1-0.27-0.2-0.53-0.3-0.8c0.47-0.02,0.95-0.05,1.42-0.07
	C304.54,793,304.17,793.29,303.79,793.58z"/>
<path class="st1" d="M515.42,792.77c0.48,0.01,0.96,0.01,1.44,0.02c-0.1,0.27-0.2,0.54-0.3,0.81
	C516.18,793.32,515.8,793.04,515.42,792.77z"/>
<path class="st5" d="M404.29,467.51c-22.95,0.13-52.93-0.03-82.9-1.43c-15.12-0.7-30.3-1.04-45.3-2.82
	c-19.04-2.26-33.86-16.34-34.28-36.94c-0.58-28.28-3.54-56.52-2.59-84.85c0.83-24.79,1.83-49.58,3.06-74.35
	c0.82-16.54,16.54-30.79,34.69-32.2c29.71-2.31,59.46-3.61,89.25-4.42c25.66-0.69,51.3-0.75,76.94-0.39
	c33.28,0.48,66.53,2.03,99.71,4.88c19.81,1.7,33.94,16.8,34.33,36.75c0.6,30.56,3.71,61.05,2.86,91.64
	c-0.51,18.29-1.42,36.59-2.85,54.83c-0.35,4.47,0.13,8.9-0.43,13.28c-2.22,17.32-16.56,30.12-35.18,31.82
	C498.27,467.29,454.81,467.53,404.29,467.51z M415.62,452.72c10.83-0.47,27.79,0.13,44.78-0.63c24.57-1.09,49.12-2.19,73.63-4.23
	c11.19-0.93,23.56-12,24.73-23.24c2.26-21.65,3.56-43.38,3.95-65.15c0.23-12.63,0.1-25.27-0.62-37.93
	c-0.89-15.75-1.6-31.5-3.15-47.21c-1.22-12.29-12.09-23.02-24.34-23.88c-13.25-0.93-26.48-2.24-39.74-2.79
	c-22.77-0.94-45.55-1.64-68.33-2.01c-13.47-0.22-26.94-0.35-40.43,0.55c-14.6,0.97-29.26,0.3-43.91,0.97
	c-19.09,0.87-38.17,1.84-57.22,3.29c-10.96,0.83-21.3,9.08-23.52,19.9c-3.82,18.61-3.91,37.64-4.68,56.5
	c-1.23,30.1,0.41,60.17,2.63,90.23c1.35,18.38,11.11,29.97,29.44,31.53c26.17,2.24,52.42,3.13,78.66,4.02
	C381.48,453.11,395.49,452.72,415.62,452.72z"/>
<path class="st5" d="M613.13,318.74c1.11,5.61,0.35,11.27,0.47,16.91C612.69,330.03,612.99,324.38,613.13,318.74z"/>
<path class="st5" d="M613.11,313.66c0.07,0.22,0.17,0.43,0.2,0.65c0.01,0.09-0.12,0.2-0.19,0.3
	C612.94,314.29,612.94,313.98,613.11,313.66z"/>
<path class="st1" d="M482.42,548.18c0.81,0.02,1.62,0.05,2.43,0.07c0.24,0.19,0.52,0.26,0.83,0.22c7.82,2.16,11.84,7.01,11.95,15.04
	c0.14,10.98,0.13,21.97-0.02,32.96c-0.13,9.11-6.37,15.34-15.47,15.35c-48.78,0.06-97.55,0.07-146.33,0.01
	c-9.48-0.01-15.12-5.8-15.18-15.33c-0.07-11.15-0.07-22.31,0.05-33.46c0.08-7.36,4.63-12.73,11.93-14.52
	c49.12,0.02,98.25,0.05,147.37,0.05C480.8,548.57,481.61,548.32,482.42,548.18z M469.25,593.53c7.66,0.11,14.08-6,14.3-13.61
	c0.21-7.45-6.15-14.09-13.7-14.32c-7.81-0.23-14.19,5.76-14.28,13.41C455.45,587.45,461.08,593.41,469.25,593.53z M334.64,579.52
	c-0.03,7.66,5.85,13.79,13.36,13.93c7.73,0.14,14.36-6.55,14.21-14.36c-0.13-7.31-6.63-13.49-14.1-13.39
	C340.61,565.8,334.67,571.9,334.64,579.52z M442.78,579.61c0.01-7.98-5.91-13.91-13.88-13.9c-7.62,0.01-13.32,5.9-13.36,13.82
	c-0.05,8.01,5.92,14.03,13.83,13.94C436.92,593.39,442.77,587.34,442.78,579.61z M388.17,593.48c7.55,0.11,14.21-6.31,14.31-13.81
	c0.11-7.56-6.36-13.99-14.04-13.98c-7.31,0.02-13.61,6.36-13.68,13.78C374.7,586.92,380.88,593.38,388.17,593.48z"/>
<path class="st5" d="M482.42,548.18c-0.81,0.13-1.62,0.38-2.43,0.38c-49.12,0-98.25-0.03-147.37-0.05c1.48-1.07,3.19-0.75,4.83-0.75
	c46.85-0.02,93.71-0.03,140.56-0.02C479.48,547.74,480.95,548.03,482.42,548.18z"/>
<path class="st5" d="M485.69,548.47c-0.31,0.05-0.59-0.02-0.83-0.22C485.14,548.32,485.41,548.4,485.69,548.47z"/>
<path class="st1" d="M409.8,686.44c10.99,0,21.97-0.05,32.96,0.02c5.55,0.03,9.65,3.6,9.87,8.34c0.25,5.25-3.98,9.63-9.88,9.66
	c-21.97,0.1-43.94,0.1-65.91,0c-6.04-0.03-10.24-4.19-10.09-9.44c0.13-5.01,4.26-8.58,10.1-8.6c10.99-0.04,21.97-0.01,32.96-0.01
	C409.8,686.42,409.8,686.43,409.8,686.44z"/>
<path class="st5" d="M523.54,729.97c-10.85,1.33-21.74,0.31-32.6,0.57c4.99-1.69,10.14-0.66,15.21-0.79
	C511.94,729.59,517.74,729.87,523.54,729.97z"/>
<path class="st4" d="M415.62,452.72c-20.13,0-34.14,0.39-48.12-0.08c-26.24-0.88-52.49-1.78-78.66-4.02
	c-18.32-1.57-28.09-13.16-29.44-31.53c-2.22-30.06-3.85-60.13-2.63-90.23c0.77-18.87,0.87-37.89,4.68-56.5
	c2.22-10.81,12.56-19.07,23.52-19.9c19.05-1.44,38.13-2.41,57.22-3.29c14.65-0.67,29.31,0.01,43.91-0.97
	c13.49-0.9,26.96-0.77,40.43-0.55c22.78,0.37,45.56,1.07,68.33,2.01c13.26,0.55,26.49,1.86,39.74,2.79
	c12.25,0.86,23.12,11.59,24.34,23.88c1.56,15.71,2.26,31.46,3.15,47.21c0.72,12.66,0.84,25.29,0.62,37.93
	c-0.39,21.76-1.69,43.49-3.95,65.15c-1.17,11.24-13.54,22.31-24.73,23.24c-24.51,2.04-49.06,3.14-73.63,4.23
	C443.41,452.84,426.45,452.24,415.62,452.72z M409.51,422.62c9.87-0.19,19.59-1.39,28.81-5.09c9.74-3.9,18.36-9.39,24.09-18.53
	c1.83-2.92,3.1-6.03,0.62-9.25c-2.39-3.1-5.54-2.22-8.69-1.57c-12.86,2.63-25.75,5-38.93,5.52c-16.93,0.67-33.46-2-49.91-5.54
	c-3.26-0.7-6.76-1.61-9.01,1.94c-2.18,3.45-0.87,6.74,1.17,9.76c2.24,3.32,4.91,6.25,8.06,8.79
	C378.53,418.96,393.52,422.31,409.51,422.62z M333.16,360.87c13.07,0.21,23.33-9.92,23.5-23.24c0.17-12.97-9.8-23.53-22.52-23.85
	c-12.59-0.32-23.13,10.02-23.38,22.93C310.5,350.38,320.02,360.65,333.16,360.87z M508.82,336.9c-0.13-13.17-10.29-23.4-23.01-23.17
	c-12.68,0.22-23.31,11.41-22.98,24.17c0.34,13.07,10.22,23.02,22.79,22.95C499.22,360.78,508.95,350.73,508.82,336.9z"/>
<path class="st3" d="M469.25,593.53c-8.17-0.12-13.8-6.08-13.69-14.51c0.1-7.65,6.48-13.64,14.28-13.41
	c7.55,0.22,13.91,6.87,13.7,14.32C483.34,587.53,476.92,593.64,469.25,593.53z"/>
<path class="st4" d="M334.64,579.52c0.03-7.62,5.97-13.72,13.47-13.82c7.46-0.1,13.96,6.08,14.1,13.39
	c0.14,7.8-6.48,14.5-14.21,14.36C340.49,593.32,334.61,587.18,334.64,579.52z"/>
<path class="st4" d="M442.78,579.61c-0.01,7.73-5.86,13.78-13.41,13.86c-7.91,0.08-13.87-5.93-13.83-13.94
	c0.05-7.92,5.74-13.81,13.36-13.82C436.87,565.7,442.79,571.63,442.78,579.61z"/>
<path class="st4" d="M388.17,593.48c-7.29-0.1-13.47-6.56-13.41-14.01c0.06-7.42,6.36-13.76,13.68-13.78
	c7.68-0.02,14.15,6.42,14.04,13.98C402.38,587.17,395.73,593.59,388.17,593.48z"/>
<path class="st1" d="M409.51,422.62c-15.99-0.31-30.98-3.65-43.78-13.97c-3.15-2.54-5.82-5.47-8.06-8.79
	c-2.04-3.02-3.35-6.31-1.17-9.76c2.25-3.55,5.74-2.64,9.01-1.94c16.45,3.54,32.98,6.21,49.91,5.54c13.17-0.52,26.07-2.89,38.93-5.52
	c3.15-0.65,6.3-1.53,8.69,1.57c2.48,3.22,1.21,6.33-0.62,9.25c-5.73,9.14-14.35,14.64-24.09,18.53
	C429.1,421.23,419.38,422.43,409.51,422.62z"/>
<path class="st1" d="M333.16,360.87c-13.14-0.22-22.66-10.49-22.4-24.16c0.25-12.91,10.79-23.25,23.38-22.93
	c12.72,0.32,22.69,10.89,22.52,23.85C356.49,350.94,346.23,361.08,333.16,360.87z"/>
<path class="st1" d="M508.82,336.9c0.14,13.82-9.6,23.87-23.2,23.95c-12.57,0.07-22.45-9.88-22.79-22.95
	c-0.33-12.77,10.3-23.95,22.98-24.17C498.53,313.51,508.68,323.73,508.82,336.9z"/>
<rect x="341.47" y="497.05" class="st1" width="136.22" height="20.6"/>
</svg>
