<?xml version="1.0" encoding="utf-8"?>
<!-- Generator: Adobe Illustrator 26.4.1, SVG Export Plug-In . SVG Version: 6.00 Build 0)  -->
<svg version="1.1" id="Слой_1" xmlns="http://www.w3.org/2000/svg" xmlns:xlink="http://www.w3.org/1999/xlink" x="0px" y="0px"
	 viewBox="0 0 339.29 185.88" style="enable-background:new 0 0 339.29 185.88;" xml:space="preserve">
<style type="text/css">
	.st0{fill:#FDFBE9;}
	.st1{fill:#366150;}
	.st2{fill:#FDE2A9;}
	.st3{fill:#ED6F36;}
	.st4{fill:#ACBD6E;}
	.st5{fill:#48765B;}
	.st6{fill-rule:evenodd;clip-rule:evenodd;fill:#366150;}
</style>
<g>
	<path class="st1" d="M154.04,89.69c0.88,0.01,1.58,0.64,2.43,0.72c-2.64,4.6-5.28,9.19-7.92,13.79c-0.14,0.25-0.26,0.51-0.39,0.76
		c-0.9-0.01-1.86,0.14-2.72-0.18C148.29,99.81,151.19,94.67,154.04,89.69z"/>
	<path class="st1" d="M92.49,90.59c0.65-0.54,1.56-0.57,2.2-1.13c2.39,4.24,4.78,8.48,7.16,12.72c0.48,0.86,0.95,1.72,1.42,2.59
		c-0.88,0.01-1.65,0.63-2.54,0.29C98.03,100.31,95.21,95.33,92.49,90.59z"/>
	<path class="st2" d="M111.33,162.76c-2.93-0.03-5.87,0.03-8.8-0.1c-2.74-0.12-5.48-0.05-8.22-0.13c-3.98-0.12-7.92-3.81-8.3-7.79
		c-0.26-2.73-0.37-5.46-0.4-8.2c0-0.37,0.08-0.78-0.33-1.03c0.28-0.11,0.21-0.35,0.21-0.57c-0.06-4.24-0.13-8.48-0.17-12.71
		c-0.03-3.43-0.04-6.86,0.28-10.28c0.08-2.93,0.11-5.86,0.39-8.78c0.36-3.68,3.77-7.1,7.66-7.57c2.02-0.24,4.06-0.38,6.08-0.58
		c0.31-0.03,0.74,0.02,0.93-0.05c0.27,0,1.73-0.19,2.61-0.2c3.31-0.12,6.62-0.22,9.93-0.37c7.11-0.32,14.23-0.22,21.34-0.11
		c3.24,0.05,6.5,0.14,9.73,0.47c0.41,0.04,1.14-0.01,1.21-0.02c0.01,0,1.76,0.22,2.67,0.23c2.5,0.25,5.03,0.31,7.5,0.81
		c3.78,0.77,6.74,3.78,7.07,7.76c0.23,2.7,0.31,5.41,0.45,8.11c0.08,1.86,0.16,3.73,0.24,5.59c-0.03,0.06-0.03,0.12,0,0.18
		c0,0.26,0,0.53,0,0.79c-0.03,1.08-0.09,2.17,0.09,3.24c0,0.6,0,1.21-0.01,1.81c-0.05,4.06-0.05,8.13-0.33,12.18
		c-0.04,3-0.17,6-0.4,8.99c-0.22,2.86-1.7,4.95-3.95,6.58c-1.52,1.1-3.21,1.55-5.11,1.55c-5.43,0-10.86,0.12-16.29,0.19
		C128.73,162.76,120.03,162.76,111.33,162.76z M123.35,156.76c9.69,0,18.03-0.04,26.35-0.8c3.57-0.33,6.32-2.78,6.75-6.11
		c0.11-0.84,0.02-1.69,0.08-2.55c0.27-3.5,0.45-7.01,0.55-10.52c0.16-5.87-0.43-11.72-0.55-17.59c-0.08-3.83-2.79-6.73-6.59-7.05
		c-6.37-0.55-12.75-0.85-19.13-0.94c-4.92-0.07-9.84-0.06-14.76,0.07c-5.72,0.15-11.43,0.4-17.13,0.85c-3.48,0.27-6.5,3-6.66,6.18
		c-0.24,4.75-0.43,9.51-0.59,14.27c-0.18,5.44,0.39,10.85,0.5,16.28c0.08,3.95,2.92,6.65,6.58,7.09c2.88,0.34,5.79,0.41,8.69,0.54
		C113.2,156.76,118.95,156.79,123.35,156.76z"/>
	<path class="st1" d="M85.59,121.94c-0.32,3.42-0.31,6.85-0.28,10.28c0.04,4.24,0.11,8.48,0.17,12.71c0,0.22,0.07,0.45-0.21,0.57
		c-3.03-0.56-4.99-2.7-5.03-5.73c-0.06-4.12-0.07-8.25,0.02-12.37c0.06-2.92,1.95-5.05,4.69-5.64
		C85.27,121.69,85.44,121.69,85.59,121.94z"/>
	<path class="st1" d="M163.43,128.21c0-0.26,0-0.53,0-0.79c0.01-0.02,0.04-0.04,0.04-0.06c-0.01-0.04-0.03-0.08-0.04-0.12
		c-0.08-1.86-0.16-3.73-0.24-5.59c1.43,0.22,2.73,0.7,3.76,1.79c0.94,0.99,1.53,2.16,1.57,3.5c0.13,4.44,0.18,8.89-0.02,13.33
		c-0.12,2.85-2.6,5.14-5.32,5.18c0.28-4.06,0.28-8.12,0.33-12.18c0.01-0.6,0.01-1.21,0.01-1.81
		C163.5,130.38,163.64,129.29,163.43,128.21z"/>
	<path class="st3" d="M92.49,90.59c-0.84-0.31-1.74-0.07-2.6-0.48c-2.03-0.96-3.21-2.93-2.92-5.1c0.27-1.96,2.01-3.73,3.97-4.02
		c2.27-0.33,4.32,0.84,5.24,2.99c0.81,1.91,0.22,4.1-1.48,5.48C94.06,90.02,93.14,90.05,92.49,90.59z"/>
	<path class="st3" d="M154.04,89.69c-0.02-0.28-0.22-0.45-0.39-0.64c-1.72-1.96-1.86-4.31-0.38-6.29c1.27-1.7,3.69-2.31,5.58-1.41
		c2.08,0.99,3.2,3.25,2.66,5.38c-0.57,2.3-2.55,3.74-5.05,3.67C155.62,90.33,154.92,89.71,154.04,89.69z"/>
	<path class="st5" d="M123.35,156.76c-4.4,0.02-10.16-0.01-15.91-0.27c-2.9-0.14-5.81-0.2-8.69-0.54c-3.65-0.43-6.5-3.14-6.58-7.09
		c-0.11-5.43-0.68-10.85-0.5-16.28c0.16-4.76,0.35-9.51,0.59-14.27c0.16-3.17,3.17-5.91,6.66-6.18c5.7-0.44,11.41-0.69,17.13-0.85
		c4.92-0.13,9.84-0.14,14.76-0.07c6.39,0.09,12.77,0.39,19.13,0.94c3.8,0.33,6.51,3.22,6.59,7.05c0.12,5.86,0.71,11.72,0.55,17.59
		c-0.1,3.51-0.27,7.02-0.55,10.52c-0.07,0.86,0.02,1.71-0.08,2.55c-0.43,3.32-3.18,5.78-6.75,6.11
		C141.39,156.72,133.05,156.77,123.35,156.76z M125.53,153.92c2.08-0.09,5.33,0.02,8.59-0.12c4.71-0.21,9.43-0.42,14.13-0.81
		c2.15-0.18,4.52-2.3,4.75-4.46c0.43-4.16,0.68-8.32,0.76-12.5c0.04-2.42,0.02-4.85-0.12-7.28c-0.17-3.02-0.31-6.05-0.6-9.06
		c-0.23-2.36-2.32-4.42-4.67-4.58c-2.54-0.18-5.08-0.43-7.63-0.54c-4.37-0.18-8.74-0.32-13.11-0.39c-2.58-0.04-5.17-0.07-7.76,0.11
		c-2.8,0.19-5.61,0.06-8.43,0.19c-3.66,0.17-7.32,0.35-10.98,0.63c-2.1,0.16-4.09,1.74-4.51,3.82c-0.73,3.57-0.75,7.22-0.9,10.84
		c-0.24,5.78,0.08,11.55,0.5,17.31c0.26,3.53,2.13,5.75,5.65,6.05c5.02,0.43,10.06,0.6,15.09,0.77
		C118.98,154,121.66,153.92,125.53,153.92z"/>
	<path class="st5" d="M163.43,128.21c0.21,1.08,0.07,2.16,0.09,3.24C163.34,130.38,163.4,129.3,163.43,128.21z"/>
	<path class="st5" d="M163.42,127.24c0.01,0.04,0.03,0.08,0.04,0.12c0,0.02-0.02,0.04-0.04,0.06
		C163.39,127.36,163.39,127.3,163.42,127.24z"/>
	<path class="st4" d="M125.53,153.92c-3.86,0-6.55,0.07-9.23-0.02c-5.04-0.17-10.07-0.34-15.09-0.77c-3.52-0.3-5.39-2.52-5.65-6.05
		c-0.43-5.77-0.74-11.54-0.5-17.31c0.15-3.62,0.17-7.27,0.9-10.84c0.43-2.08,2.41-3.66,4.51-3.82c3.66-0.28,7.32-0.46,10.98-0.63
		c2.81-0.13,5.62,0,8.43-0.19c2.59-0.17,5.17-0.15,7.76-0.11c4.37,0.07,8.74,0.2,13.11,0.39c2.54,0.11,5.08,0.36,7.63,0.54
		c2.35,0.17,4.44,2.22,4.67,4.58c0.3,3.01,0.43,6.04,0.6,9.06c0.14,2.43,0.16,4.85,0.12,7.28c-0.07,4.18-0.32,8.35-0.76,12.5
		c-0.22,2.16-2.6,4.28-4.75,4.46c-4.7,0.39-9.41,0.6-14.13,0.81C130.86,153.95,127.6,153.83,125.53,153.92z M124.35,148.15
		c1.89-0.04,3.76-0.27,5.53-0.98c1.87-0.75,3.52-1.8,4.62-3.56c0.35-0.56,0.6-1.16,0.12-1.77c-0.46-0.59-1.06-0.43-1.67-0.3
		c-2.47,0.5-4.94,0.96-7.47,1.06c-3.25,0.13-6.42-0.38-9.58-1.06c-0.63-0.13-1.3-0.31-1.73,0.37c-0.42,0.66-0.17,1.29,0.22,1.87
		c0.43,0.64,0.94,1.2,1.55,1.69C118.41,147.45,121.29,148.09,124.35,148.15z M109.7,136.3c2.51,0.04,4.48-1.9,4.51-4.46
		c0.03-2.49-1.88-4.51-4.32-4.58c-2.42-0.06-4.44,1.92-4.49,4.4C105.36,134.29,107.18,136.26,109.7,136.3z M143.41,131.7
		c-0.03-2.53-1.97-4.49-4.42-4.45c-2.43,0.04-4.47,2.19-4.41,4.64c0.07,2.51,1.96,4.42,4.37,4.4
		C141.57,136.28,143.44,134.35,143.41,131.7z"/>
	<path class="st1" d="M124.35,148.15c-3.07-0.06-5.94-0.7-8.4-2.68c-0.6-0.49-1.12-1.05-1.55-1.69c-0.39-0.58-0.64-1.21-0.22-1.87
		c0.43-0.68,1.1-0.51,1.73-0.37c3.16,0.68,6.33,1.19,9.58,1.06c2.53-0.1,5-0.55,7.47-1.06c0.61-0.12,1.21-0.29,1.67,0.3
		c0.48,0.62,0.23,1.21-0.12,1.77c-1.1,1.75-2.75,2.81-4.62,3.56C128.11,147.88,126.25,148.11,124.35,148.15z"/>
	<path class="st1" d="M109.7,136.3c-2.52-0.04-4.35-2.01-4.3-4.64c0.05-2.48,2.07-4.46,4.49-4.4c2.44,0.06,4.35,2.09,4.32,4.58
		C114.18,134.39,112.21,136.34,109.7,136.3z"/>
	<path class="st1" d="M143.41,131.7c0.03,2.65-1.84,4.58-4.45,4.6c-2.41,0.01-4.31-1.9-4.37-4.4c-0.06-2.45,1.98-4.6,4.41-4.64
		C141.44,127.21,143.38,129.17,143.41,131.7z"/>
</g>
<g>
	<path class="st1" d="M29.57,70.07c-4.16-4.2-6.24-10.61-6.24-19.25s2.17-15.04,6.52-19.2s10.87-6.24,19.56-6.24h7.84
		c5.18,0,9.85,1.24,14.01,3.71s6.24,5.56,6.24,9.26c0,1.38-0.41,2.37-1.23,2.97s-1.62,0.9-2.39,0.9h-4.18
		c-2.02,0-3.62-1.15-4.82-3.45c-1.2-2.3-4.15-3.45-8.86-3.45h-6.26c-5.13,0-8.61,1.1-10.44,3.3s-2.74,6.26-2.74,12.16
		s0.82,9.99,2.46,12.25s4.57,3.39,8.79,3.39h7.21c3.77,0,6.47-0.72,8.09-2.16c1.62-1.44,2.45-3.51,2.5-6.21h-7.95
		c-0.91,0-1.69-0.32-2.34-0.97s-0.97-1.42-0.97-2.34v-2.74c0-0.91,0.32-1.69,0.97-2.34s1.42-0.97,2.34-0.97h17.65
		c0.91,0,1.69,0.32,2.34,0.97s0.97,1.42,0.97,2.34v3.9c0,6.56-1.97,11.61-5.91,15.13s-9.71,5.29-17.33,5.29h-7.91
		C39.71,76.36,33.73,74.26,29.57,70.07z"/>
	<path class="st1" d="M138.19,74.57c0,1.01-0.6,1.51-1.79,1.51h-8.44c-0.89,0-1.87-0.32-2.94-0.97s-1.88-1.42-2.44-2.34l-5.98-9.35
		c-2.46-3.84-5.44-5.77-8.93-5.77H99.1v15.12c0,0.91-0.32,1.69-0.97,2.34s-1.42,0.97-2.34,0.97h-6.61c-0.91,0-1.7-0.32-2.36-0.97
		s-0.98-1.42-0.98-2.34V29.01c0-0.91,0.32-1.7,0.95-2.36s1.41-0.98,2.32-0.98h29c5.37,0,9.77,1.44,13.2,4.32
		c3.43,2.88,5.15,6.77,5.15,11.67c0,6.82-4.42,11.1-13.25,12.83c1.41,0.52,2.71,1.4,3.9,2.65c1.2,1.25,2.57,3.08,4.11,5.47
		l6.4,10.16C138,73.43,138.19,74.03,138.19,74.57z M99.1,47.71h14.98c2.41,0,4.54-0.48,6.38-1.44s2.76-2.5,2.76-4.61
		s-0.92-3.64-2.76-4.61s-3.97-1.44-6.38-1.44H99.1V47.71z"/>
	<path class="st1" d="M144.03,72.7V28.94c0-0.91,0.33-1.69,0.98-2.32s1.44-0.95,2.36-0.95h40.54c0.91,0,1.69,0.33,2.34,0.98
		s0.97,1.44,0.97,2.36v3.3c0,0.91-0.32,1.69-0.97,2.34s-1.42,0.97-2.34,0.97h-30.62v10.23h26.37c0.91,0,1.69,0.32,2.34,0.97
		s0.97,1.42,0.97,2.34v3.3c0,0.91-0.32,1.69-0.97,2.34s-1.42,0.97-2.34,0.97h-26.37v10.37h30.55c0.89,0,1.65,0.32,2.29,0.95
		s0.95,1.41,0.95,2.32v3.38c0,0.91-0.33,1.69-0.98,2.34s-1.44,0.97-2.36,0.97h-40.36c-0.91,0-1.7-0.32-2.36-0.97
		S144.03,73.67,144.03,72.7z"/>
	<path class="st1" d="M197.67,72.7V28.94c0-0.91,0.33-1.69,0.98-2.32s1.44-0.95,2.36-0.95h40.54c0.91,0,1.69,0.33,2.34,0.98
		s0.97,1.44,0.97,2.36v3.3c0,0.91-0.32,1.69-0.97,2.34s-1.42,0.97-2.34,0.97h-30.62v10.23h26.37c0.91,0,1.69,0.32,2.34,0.97
		s0.97,1.42,0.97,2.34v3.3c0,0.91-0.32,1.69-0.97,2.34s-1.42,0.97-2.34,0.97h-26.37v10.37h30.55c0.89,0,1.65,0.32,2.29,0.95
		s0.95,1.41,0.95,2.32v3.38c0,0.91-0.33,1.69-0.98,2.34s-1.44,0.97-2.36,0.97h-40.36c-0.91,0-1.7-0.32-2.36-0.97
		S197.67,73.67,197.67,72.7z"/>
	<path class="st1" d="M251.32,72.77V29.01c0-0.91,0.32-1.7,0.95-2.36s1.41-0.98,2.32-0.98h10.34c0.82,0,1.69,0.33,2.6,0.98
		s1.66,1.44,2.25,2.36l21.23,32.66V28.94c0-0.91,0.32-1.69,0.97-2.32s1.42-0.95,2.34-0.95h6.05c0.91,0,1.69,0.32,2.34,0.95
		s0.97,1.43,0.97,2.39v43.77c0,0.91-0.32,1.69-0.97,2.34s-1.42,0.97-2.34,0.97h-11.67c-0.91,0-1.85-0.32-2.81-0.97
		s-1.72-1.42-2.29-2.34l-19.44-30.16v30.16c0,0.91-0.32,1.69-0.97,2.34s-1.42,0.97-2.34,0.97h-6.19c-0.91,0-1.7-0.32-2.36-0.97
		S251.32,73.69,251.32,72.77z"/>
	<path class="st1" d="M26.22,159.25v-43.77c0-0.96,0.33-1.77,0.98-2.43s1.44-0.98,2.36-0.98h6.61c0.91,0,1.69,0.33,2.34,0.98
		s0.97,1.46,0.97,2.43v37.05h30.62c0.91,0,1.69,0.33,2.34,0.98s0.97,1.44,0.97,2.36v3.3c0,0.91-0.32,1.69-0.97,2.34
		s-1.42,0.97-2.34,0.97H29.56c-0.91,0-1.7-0.31-2.36-0.93S26.22,160.16,26.22,159.25z"/>
	<path class="st1" d="M183.31,156.47c-4.16-4.2-6.24-10.61-6.24-19.25s2.17-15.04,6.52-19.2s10.87-6.24,19.56-6.24H211
		c5.18,0,9.85,1.24,14.01,3.71s6.24,5.56,6.24,9.26c0,1.38-0.41,2.37-1.23,2.97s-1.62,0.9-2.39,0.9h-4.18
		c-2.02,0-3.62-1.15-4.82-3.45s-4.15-3.45-8.86-3.45h-6.26c-5.13,0-8.61,1.1-10.44,3.3s-2.74,6.26-2.74,12.16s0.82,9.99,2.46,12.25
		s4.57,3.39,8.79,3.39h7.21c3.77,0,6.47-0.72,8.09-2.16s2.45-3.51,2.5-6.21h-7.95c-0.91,0-1.69-0.32-2.34-0.97s-0.97-1.42-0.97-2.34
		v-2.74c0-0.91,0.32-1.69,0.97-2.34s1.42-0.97,2.34-0.97h17.65c0.91,0,1.69,0.32,2.34,0.97s0.97,1.42,0.97,2.34v3.9
		c0,6.56-1.97,11.61-5.91,15.13s-9.71,5.29-17.33,5.29h-7.91C193.44,162.76,187.47,160.66,183.31,156.47z"/>
	<path class="st1" d="M239.58,159.25v-43.84c0-0.91,0.33-1.7,0.98-2.36s1.44-0.98,2.36-0.98h6.54c0.96,0,1.76,0.33,2.41,0.98
		s0.97,1.44,0.97,2.36v43.77c0,0.91-0.33,1.69-1,2.34s-1.46,0.97-2.37,0.97h-6.54c-0.91,0-1.7-0.31-2.36-0.93
		S239.58,160.16,239.58,159.25z"/>
	<path class="st1" d="M266.56,156.54c-4.35-4.15-6.52-10.56-6.52-19.25s2.17-15.11,6.52-19.27s10.87-6.24,19.56-6.24h7.84
		c5.32,0,10.03,1.38,14.12,4.15s6.13,6.55,6.13,11.36c0,1.38-0.41,2.37-1.23,2.97s-1.62,0.9-2.39,0.9h-4.18
		c-2.16,0-3.83-1.29-5.03-3.87c-1.73-3.7-4.62-5.55-8.65-5.55h-6.26c-5.13,0-8.61,1.1-10.44,3.3s-2.74,6.28-2.74,12.23
		s0.91,10.04,2.74,12.25s5.31,3.32,10.44,3.32h7c4.03,0,6.9-1.85,8.61-5.55c1.2-2.6,2.88-3.9,5.06-3.9h4.18
		c1.1,0,1.97,0.41,2.62,1.23s0.97,1.71,0.97,2.67c0,4.8-2.04,8.58-6.12,11.34s-8.78,4.13-14.1,4.13h-8.58
		C277.43,162.76,270.91,160.69,266.56,156.54z"/>
</g>
</svg>
